<?xml version="1.0" standalone="no"?><!DOCTYPE svg PUBLIC "-//W3C//DTD SVG 1.1//EN" "http://www.w3.org/Graphics/SVG/1.1/DTD/svg11.dtd"><svg xmlns:xlink="http://www.w3.org/1999/xlink" version="1.1" style="font-family:'lucida grande', 'lucida sans unicode', verdana, arial, helvetica, sans-serif;font-size:12px;" xmlns="http://www.w3.org/2000/svg" width="600" height="400"><desc>Created with Highcharts 3.0.10</desc><defs><clipPath id="highcharts-5"><rect x="0" y="0" width="534" height="297"></rect></clipPath></defs><rect x="0" y="0" width="600" height="400" fill="#FFFFFF" class=" highcharts-background"></rect><g class="highcharts-grid" ></g><g class="highcharts-grid" ><path fill="none" d="M 56 39.5 L 590 39.5" stroke="#C0C0C0" stroke-width="1"  opacity="1"></path><path fill="none" d="M 56 139.5 L 590 139.5" stroke="#C0C0C0" stroke-width="1"  opacity="1"></path><path fill="none" d="M 56 238.5 L 590 238.5" stroke="#C0C0C0" stroke-width="1"  opacity="1"></path><path fill="none" d="M 56 337.5 L 590 337.5" stroke="#C0C0C0" stroke-width="1"  opacity="1"></path></g><g class="highcharts-axis" ><path fill="none" d="M 269.5 337 L 269.5 342" stroke="#C0D0E0" stroke-width="1" opacity="1"></path><path fill="none" d="M 375.5 337 L 375.5 342" stroke="#C0D0E0" stroke-width="1" opacity="1"></path><path fill="none" d="M 482.5 337 L 482.5 342" stroke="#C0D0E0" stroke-width="1" opacity="1"></path><path fill="none" d="M 590.5 337 L 590.5 342" stroke="#C0D0E0" stroke-width="1" opacity="1"></path><path fill="none" d="M 162.5 337 L 162.5 342" stroke="#C0D0E0" stroke-width="1" opacity="1"></path><path fill="none" d="M 55.5 337 L 55.5 342" stroke="#C0D0E0" stroke-width="1"></path><path fill="none" d="M 56 337.5 L 590 337.5" stroke="#C0D0E0" stroke-width="1"  visibility="visible"></path></g><g class="highcharts-axis" ><text x="24.078125" y="188.5"  text-anchor="middle" transform="translate(0,0) rotate(270 24.078125 188.5)" class=" highcharts-yaxis-title" style="color:#4d759e;font-weight:bold;fill:#4d759e;" visibility="visible"><tspan x="24.078125">Sum</tspan></text></g><g class="highcharts-series-group" ><g class="highcharts-series highcharts-tracker" visibility="visible"  transform="translate(56,40) scale(1 1)" style="" clip-path="url(#highcharts-5)"><rect x="24.5" y="59.5" width="26" height="238" stroke="#FFFFFF" stroke-width="1" fill="#2f7ed8" rx="0" ry="0"></rect><rect x="130.5" y="158.5" width="26" height="139" stroke="#FFFFFF" stroke-width="1" fill="#2f7ed8" rx="0" ry="0"></rect><rect x="237.5" y="218.5" width="26" height="79" stroke="#FFFFFF" stroke-width="1" fill="#2f7ed8" rx="0" ry="0"></rect><rect x="344.5" y="277.5" width="26" height="20" stroke="#FFFFFF" stroke-width="1" fill="#2f7ed8" rx="0" ry="0"></rect><rect x="451.5" y="238.5" width="26" height="59" stroke="#FFFFFF" stroke-width="1" fill="#2f7ed8" rx="0" ry="0"></rect></g><g class="highcharts-markers" visibility="visible"  transform="translate(56,40) scale(1 1)" clip-path="none"></g><g class="highcharts-series highcharts-tracker" visibility="visible"  transform="translate(56,40) scale(1 1)" style="" clip-path="url(#highcharts-5)"><rect x="56.5" y="20.5" width="26" height="277" stroke="#FFFFFF" stroke-width="1" fill="#0d233a" rx="0" ry="0"></rect><rect x="162.5" y="238.5" width="26" height="59" stroke="#FFFFFF" stroke-width="1" fill="#0d233a" rx="0" ry="0"></rect><rect x="269.5" y="158.5" width="26" height="139" stroke="#FFFFFF" stroke-width="1" fill="#0d233a" rx="0" ry="0"></rect><rect x="376.5" y="238.5" width="26" height="59" stroke="#FFFFFF" stroke-width="1" fill="#0d233a" rx="0" ry="0"></rect><rect x="483.5" y="277.5" width="26" height="20" stroke="#FFFFFF" stroke-width="1" fill="#0d233a" rx="0" ry="0"></rect></g><g class="highcharts-markers" visibility="visible"  transform="translate(56,40) scale(1 1)" clip-path="none"></g></g><text x="300" y="25" text-anchor="middle" class="highcharts-title"  style="color:#274b6d;font-size:16px;fill:#274b6d;width:536px;"><tspan x="300">Chart title</tspan></text><g class="highcharts-legend"  transform="translate(206,360)"><rect x="0.5" y="0.5" width="187" height="24" rx="5" ry="5" stroke="#909090" stroke-width="1" fill="none" visibility="visible"></rect><g ><g><g class="highcharts-legend-item"  transform="translate(8,3)"><text x="21" y="15" style="color:#274b6d;font-size:12px;cursor:pointer;fill:#274b6d;" text-anchor="start" ><tspan x="21">Ship Via 1</tspan></text><rect x="0" y="4" width="16" height="12" rx="2" ry="2"  fill="#2f7ed8"></rect></g><g class="highcharts-legend-item"  transform="translate(95.0625,3)"><text x="21" y="15" style="color:#274b6d;font-size:12px;cursor:pointer;fill:#274b6d;" text-anchor="start" ><tspan x="21">Shipe Via 2</tspan></text><rect x="0" y="4" width="16" height="12" rx="2" ry="2"  fill="#0d233a"></rect></g></g></g></g><g class="highcharts-axis-labels highcharts-xaxis-labels" ><text x="109.4" y="351" text-anchor="middle" style="width:87px;color:#666;cursor:default;font-size:11px;fill:#666;" opacity="1"><tspan x="109.4">USA</tspan></text><text x="216.20000000000002" y="351" text-anchor="middle" style="width:87px;color:#666;cursor:default;font-size:11px;fill:#666;" opacity="1"><tspan x="216.20000000000002">Canada</tspan></text><text x="323" y="351" text-anchor="middle" style="width:87px;color:#666;cursor:default;font-size:11px;fill:#666;" opacity="1"><tspan x="323">Germany</tspan></text><text x="429.8" y="351" text-anchor="middle" style="width:87px;color:#666;cursor:default;font-size:11px;fill:#666;" opacity="1"><tspan x="429.8">GERMANY</tspan></text><text x="536.6" y="351" text-anchor="middle" style="width:87px;color:#666;cursor:default;font-size:11px;fill:#666;" opacity="1"><tspan x="536.6">Janan</tspan></text></g><g class="highcharts-axis-labels highcharts-yaxis-labels" ><text x="48" y="342.515625" text-anchor="end" style="width:178px;color:#666;cursor:default;font-size:11px;fill:#666;" opacity="1"><tspan x="48">0</tspan></text><text x="48" y="144.515625" text-anchor="end" style="width:178px;color:#666;cursor:default;font-size:11px;fill:#666;" opacity="1"><tspan x="48">10</tspan></text><text x="48" y="243.515625" text-anchor="end" style="width:178px;color:#666;cursor:default;font-size:11px;fill:#666;" opacity="1"><tspan x="48">5</tspan></text><text x="48" y="45.515625" text-anchor="end" style="width:178px;color:#666;cursor:default;font-size:11px;fill:#666;" opacity="1"><tspan x="48">15</tspan></text></g><g class="highcharts-tooltip"  style="cursor:default;padding:0;white-space:nowrap;" transform="translate(0,-9999)"><rect x="0.5" y="0.5" width="16" height="16" fill="none" fill-opacity="0.85" rx="3" ry="3"  stroke="black" stroke-opacity="0.049999999999999996" stroke-width="5" transform="translate(1, 1)"></rect><rect x="0.5" y="0.5" width="16" height="16" fill="none" fill-opacity="0.85" rx="3" ry="3"  stroke="black" stroke-opacity="0.09999999999999999" stroke-width="3" transform="translate(1, 1)"></rect><rect x="0.5" y="0.5" width="16" height="16" fill="none" fill-opacity="0.85" rx="3" ry="3"  stroke="black" stroke-opacity="0.15" stroke-width="1" transform="translate(1, 1)"></rect><rect x="0.5" y="0.5" width="16" height="16" fill="rgb(255,255,255)" fill-opacity="0.85" rx="3" ry="3"></rect><text x="8" y="21"  style="font-size:12px;color:#333333;fill:#333333;"></text></g><text x="590" y="395" text-anchor="end"  style="cursor:pointer;color:#909090;font-size:9px;fill:#909090;"><tspan x="590">Highcharts.com</tspan></text></svg>